<svg width="1440" height="563" viewBox="0 0 1440 563" fill="none" xmlns="http://www.w3.org/2000/svg">
<path d="M-5.68325 0.954865L-36.9773 27.4547C-31.1614 34.3227 -25.3425 40.858 -19.5128 47.0925C-8.79155 26.726 0.579753 8.35093 -5.68325 0.954865Z" fill="black"/>
<path d="M-36.1499 117.529C-23.5812 129.281 0.553507 109.867 24.8333 90.3373L25.8637 89.5086C46.1524 105.861 66.4951 118.936 86.892 129.323C83.119 151.232 81.911 171.558 97.2382 179.048C115.378 187.908 131 170.547 145.722 152.336C166.849 158.31 188.012 162.039 209.207 164.187C209.839 166.829 210.461 169.495 211.082 172.156L211.084 172.163C216.724 196.333 222.264 220.071 234.658 221.727L234.654 221.73C246.991 223.379 253.571 199.145 260.695 172.905C261.261 170.823 261.829 168.729 262.404 166.634C284.633 166.592 306.885 165.416 329.136 163.864C318.557 134.957 308.003 107.317 292.54 111.19C277.57 114.942 269.487 140.839 262.404 166.634C244.657 166.67 226.918 165.981 209.207 164.187C203.821 141.703 197.677 120.93 185.051 119.667L185.048 119.663C172.908 118.451 161.174 133.081 148.881 148.408L148.873 148.418C147.827 149.722 146.777 151.031 145.722 152.336C126.075 146.78 106.463 139.284 86.8937 129.317C87.6151 125.129 88.4301 120.884 89.2411 116.659C93.7956 92.9343 98.2251 69.8606 85.255 61.3576L85.2518 61.3539C72.0095 52.673 48.9417 70.944 25.8637 89.5086C10.7024 77.2848 -4.42682 63.2334 -19.5165 47.0957C-19.8537 47.7362 -20.1922 48.3786 -20.5315 49.0227C-34.4516 75.4426 -49.8706 104.707 -36.1536 117.532L-36.1499 117.529Z" fill="black"/>
<path d="M522.292 159.257C512.266 179.701 501.544 198.589 486.604 197.558C470.97 196.48 465.035 178.349 458.855 159.467C458.488 158.346 458.12 157.221 457.749 156.098C479.288 155.907 500.802 156.728 522.291 159.253C523.463 156.863 524.626 154.452 525.784 152.049L525.803 152.01C536.715 129.371 547.276 107.463 562.185 110.812C577.201 114.185 578.197 138.644 579.213 163.626C579.307 165.923 579.4 168.226 579.505 170.516C560.465 165.094 541.392 161.5 522.292 159.257Z" fill="black"/>
<path d="M579.505 170.516C600.975 176.627 622.403 185.059 643.771 196.516C627.714 210.559 611.195 224.904 596.383 219.56C582.66 214.608 580.539 193.129 579.505 170.516Z" fill="black"/>
<path d="M761.273 294.962C767.089 301.83 773.055 308.241 778.885 314.476C789.606 294.109 798.977 275.734 792.714 268.338C786.146 260.581 769.73 267.03 751.464 274.13C749.338 274.957 747.184 275.794 745.016 276.62C750.44 282.46 755.859 288.569 761.273 294.962Z" fill="black"/>
<path d="M823.231 357.72C798.951 377.25 774.816 396.664 762.248 384.912L762.244 384.915C748.527 372.09 763.946 342.826 777.866 316.406C778.205 315.762 778.544 315.119 778.881 314.479C793.971 330.616 809.1 344.668 824.261 356.892L823.231 357.72Z" fill="black"/>
<path d="M944.12 419.719C929.398 437.93 913.775 455.291 895.636 446.431C880.309 438.941 881.517 418.615 885.29 396.706C864.893 386.319 844.55 373.244 824.261 356.892C847.339 338.327 870.407 320.056 883.649 328.737L883.653 328.741C896.623 337.244 892.193 360.317 887.639 384.042L887.635 384.064C886.825 388.282 886.011 392.52 885.291 396.7C904.86 406.667 924.473 414.163 944.12 419.719Z" fill="black"/>
<path d="M1007.6 431.57C986.409 429.422 965.247 425.693 944.12 419.719C945.177 418.411 946.23 417.099 947.278 415.791C959.571 400.464 971.305 385.834 983.445 387.046L983.449 387.05C996.074 388.313 1002.22 409.086 1007.6 431.57Z" fill="black"/>
<path d="M1060.8 434.017C1060.61 434.711 1060.42 435.404 1060.23 436.097C1059.85 437.497 1059.47 438.895 1059.09 440.288C1051.97 466.528 1045.39 490.762 1033.05 489.113L1033.06 489.11C1020.66 487.454 1015.12 463.716 1009.48 439.546C1008.86 436.883 1008.24 434.214 1007.6 431.57C1025.32 433.364 1043.05 434.053 1060.8 434.017Z" fill="black"/>
<path d="M1060.8 434.017C1067.88 408.222 1075.97 382.325 1090.94 378.573C1106.4 374.7 1116.95 402.34 1127.53 431.247C1105.28 432.799 1083.03 433.975 1060.8 434.017Z" fill="black"/>
<path d="M1285 464.941C1299.94 465.972 1310.66 447.084 1320.69 426.64C1339.79 428.883 1358.86 432.477 1377.9 437.899C1378.94 460.512 1381.06 481.991 1394.78 486.943C1409.59 492.287 1426.11 477.942 1442.17 463.899C1457.51 472.127 1472.83 481.913 1488.11 493.505C1481.68 514.119 1475.45 535.431 1488.33 547.03C1501.23 558.655 1522.98 551.793 1543.41 544C1525.03 524.212 1506.6 507.53 1488.11 493.505C1488.29 492.94 1488.46 492.375 1488.64 491.811C1495.04 471.347 1501.14 451.853 1488.34 443.582L1488.34 443.589C1475.14 435.065 1459.05 449.141 1442.44 463.66L1442.17 463.899C1420.8 452.442 1399.37 444.01 1377.9 437.899C1377.8 435.652 1377.71 433.394 1377.62 431.14L1377.62 431.109L1377.61 431.078L1377.61 431.044L1377.61 431.009C1376.59 406.027 1375.6 381.568 1360.58 378.195C1345.67 374.846 1335.11 396.754 1324.2 419.393C1323.04 421.809 1321.87 424.233 1320.69 426.636C1299.2 424.11 1277.69 423.29 1256.15 423.481C1256.52 424.604 1256.89 425.729 1257.25 426.851C1263.43 445.732 1269.37 463.863 1285 464.941Z" fill="black"/>
<path d="M1189.91 441.396C1185.54 466.515 1181.37 490.509 1166.08 491.517C1149.96 492.577 1139.09 462.862 1128.4 433.602L1127.53 431.24C1138.6 430.469 1149.66 429.603 1160.72 428.737L1160.8 428.732C1171.42 427.901 1182.03 427.07 1192.65 426.323C1191.67 431.275 1190.78 436.358 1189.91 441.396Z" fill="black"/>
<path d="M1221.57 383.484C1203.83 383.391 1197.18 403.462 1192.65 426.323C1213.82 424.829 1235 423.665 1256.14 423.477C1249.52 403.411 1241.95 383.586 1221.57 383.484Z" fill="black"/>
<path d="M1559.67 562.345C1554.26 555.953 1548.84 549.843 1543.41 544.003C1545.58 543.177 1547.74 542.34 1549.86 541.513C1568.13 534.413 1584.4 528.089 1590.96 535.845L1559.67 562.345Z" fill="black"/>
<path d="M367.684 224.134C382.971 223.126 387.142 199.133 391.509 174.014L391.509 174.011C392.385 168.974 393.268 163.891 394.251 158.94C415.425 157.446 436.6 156.282 457.746 156.094C451.119 136.028 443.557 116.203 423.174 116.101C405.435 116.008 398.787 136.079 394.251 158.94C383.611 159.689 372.969 160.522 362.327 161.354L362.283 161.358C351.233 162.223 340.184 163.087 329.137 163.857L330.001 166.219C340.697 195.479 351.56 225.194 367.684 224.134Z" fill="black"/>
<path d="M689.928 279.647C702.828 291.272 724.583 284.41 745.013 276.617C726.632 256.829 708.2 240.147 689.713 226.122C689.89 225.557 690.066 224.992 690.243 224.429C696.643 203.964 702.741 184.47 689.941 176.199L689.94 176.206C676.747 167.682 660.649 181.758 644.043 196.277L643.771 196.516C659.116 204.744 674.433 214.53 689.713 226.122C683.281 246.736 677.057 268.048 689.928 279.647Z" fill="black"/>
</svg>
